# xmcd
#
# Track frame offsets: 
#        150
#        12725
#        29255
#        51313
#        68848
#        86283
#        105560
#        114143
#        133778
#        145838
#        164958
#        181913
#
# Disc length: 2594 seconds
#
# Revision: 3
# Processed by: cddbd v1.5.2PL0 Copyright (c) Steve Scherf et al.
# Submitted via: ExactAudioCopyFreeDBPlugin 1.0
#
DISCID=a40a200c
DTITLE=Claudia Brucken and Andrew Poppy - Another Language
DYEAR=2005
DGENRE=Blues
TTITLE0=Lipstick Vogue
TTITLE1=White Noise Maker
TTITLE2=Drive In Saturday
TTITLE3=Broken English
TTITLE4=Nice Dream
TTITLE5=Running Up That Hill
TTITLE6=Amsterdam 1896
TTITLE7=Breakfast
TTITLE8=Die Nebensonnen
TTITLE9=Libertango (I've Seen That Face Before)
TTITLE10=You Do
TTITLE11=Wooden Heart
EXTD=
EXTT0=
EXTT1=
EXTT2=
EXTT3=
EXTT4=
EXTT5=
EXTT6=
EXTT7=
EXTT8=
EXTT9=
EXTT10=
EXTT11=
PLAYORDER=
